# xmcd CD database file
#
# Track frame offsets:
#	150
#	17195
#	20155
#	42080
#	62545
#	83005
#	85777
#	105410
#	122067
#	137772
#	144560
#	174382
#	178980
#	199172
#	223385
#	247615
#	262430
#
# Disc length: 3729 seconds
#
# Revision: 0
# Processed by: cddbd v1.5.1PL0 Copyright (c) Steve Scherf et al.
# Submitted via: CDex 1.51
#
DISCID=f40e8f11
DTITLE=GIRL GIRL GIRL - THE ISTORIC RECORDINGS FROM THE "GIRL GIRL GIRL" RADIO SHOW VOLUME-1
DYEAR=1994
DGENRE=Club
TTITLE0=Girl Girl Girlのテーマ
TTITLE1=オンチなピアニスト
TTITLE2=恋のマジックアイ(I can see for miles)
TTITLE3=孤独の値段
TTITLE4=Heaven C.P.U.
TTITLE5=耳をふさげ
TTITLE6=Invitation
TTITLE7=カレーライス
TTITLE8=恋のXYZ
TTITLE9=Does anybody love you?
TTITLE10=Life Goes On
TTITLE11=Drive
TTITLE12=ディンドン・ディンドン
TTITLE13=China Girl Interlude〜中国娘
TTITLE14=タバコが欲しい
TTITLE15=Boy Boy Boy
TTITLE16=Girl Girl Girlのテーマ
EXTD=YEAR: 1994
EXTT0=
EXTT1=
EXTT2=
EXTT3=
EXTT4=
EXTT5=
EXTT6=
EXTT7=
EXTT8=
EXTT9=
EXTT10=
EXTT11=
EXTT12=
EXTT13=
EXTT14=
EXTT15=
EXTT16=
PLAYORDER=
